<svg xmlns="http://www.w3.org/2000/svg" width="503" height="61" fill="none" viewBox="0 0 503 61">
  <rect width="503" height="61" fill="#fff" rx="30.5"/>
  <path fill="#180202" d="M31.98 37c-.132 0-.234-.036-.306-.108a.454.454 0 0 1-.108-.306V24.832c0-.132.036-.234.108-.306a.381.381 0 0 1 .306-.126h7.434c.132 0 .234.042.306.126.072.072.108.174.108.306v.684c0 .132-.036.234-.108.306-.072.072-.174.108-.306.108h-6.12v3.942h5.724c.132 0 .234.042.306.126.072.072.108.174.108.306v.666c0 .12-.036.222-.108.306-.072.072-.174.108-.306.108h-5.724v4.086h6.264c.132 0 .234.036.306.108.072.072.108.174.108.306v.702c0 .12-.036.222-.108.306-.072.072-.174.108-.306.108H31.98Zm10.682 0a.454.454 0 0 1-.306-.108.454.454 0 0 1-.108-.306v-8.532a.39.39 0 0 1 .108-.288.417.417 0 0 1 .306-.126h.846a.36.36 0 0 1 .288.126.36.36 0 0 1 .126.288v.792a3.602 3.602 0 0 1 1.17-.99c.48-.264 1.092-.396 1.836-.396.78 0 1.44.174 1.98.522.552.336.966.81 1.242 1.422.276.6.414 1.302.414 2.106v5.076c0 .12-.036.222-.108.306a.39.39 0 0 1-.288.108h-.9a.454.454 0 0 1-.306-.108.454.454 0 0 1-.108-.306V31.6c0-.84-.204-1.494-.612-1.962-.408-.48-1.008-.72-1.8-.72-.744 0-1.344.24-1.8.72-.444.468-.666 1.122-.666 1.962v4.986c0 .12-.042.222-.126.306a.39.39 0 0 1-.288.108h-.9Zm14.033 0c-.672 0-1.218-.126-1.638-.378a2.29 2.29 0 0 1-.918-1.098c-.192-.48-.288-1.044-.288-1.692V29.08h-1.404a.454.454 0 0 1-.306-.108.454.454 0 0 1-.108-.306v-.612a.39.39 0 0 1 .108-.288.417.417 0 0 1 .306-.126h1.404v-3.006a.39.39 0 0 1 .108-.288.417.417 0 0 1 .306-.126h.846a.36.36 0 0 1 .288.126.36.36 0 0 1 .126.288v3.006h2.232a.36.36 0 0 1 .288.126.36.36 0 0 1 .126.288v.612c0 .12-.042.222-.126.306a.39.39 0 0 1-.288.108h-2.232v4.626c0 .564.096 1.008.288 1.332.192.324.534.486 1.026.486h1.098a.36.36 0 0 1 .288.126.36.36 0 0 1 .126.288v.648c0 .12-.042.222-.126.306a.39.39 0 0 1-.288.108h-1.242Zm7.103.18c-1.236 0-2.22-.378-2.952-1.134-.732-.768-1.134-1.812-1.206-3.132a8.01 8.01 0 0 1-.018-.594c0-.252.006-.456.018-.612.048-.852.246-1.596.594-2.232a3.714 3.714 0 0 1 1.422-1.494c.612-.348 1.326-.522 2.142-.522.912 0 1.674.192 2.286.576.624.384 1.098.93 1.422 1.638.324.708.486 1.536.486 2.484v.306a.381.381 0 0 1-.126.306.39.39 0 0 1-.288.108H61.35v.162c.024.492.132.954.324 1.386.192.42.468.762.828 1.026.36.264.792.396 1.296.396.432 0 .792-.066 1.08-.198.288-.132.522-.276.702-.432.18-.168.3-.294.36-.378.108-.156.192-.246.252-.27a.582.582 0 0 1 .288-.054h.864a.39.39 0 0 1 .288.108c.084.06.12.15.108.27-.012.18-.108.402-.288.666-.18.252-.438.504-.774.756a4.509 4.509 0 0 1-1.224.63c-.48.156-1.032.234-1.656.234Zm-2.448-5.544h4.932v-.054c0-.54-.102-1.02-.306-1.44a2.275 2.275 0 0 0-.846-.99c-.372-.252-.816-.378-1.332-.378-.516 0-.96.126-1.332.378-.36.24-.636.57-.828.99-.192.42-.288.9-.288 1.44v.054ZM70.558 37a.454.454 0 0 1-.306-.108.454.454 0 0 1-.108-.306v-8.514c0-.12.036-.222.108-.306a.417.417 0 0 1 .306-.126h.828c.12 0 .223.042.306.126a.417.417 0 0 1 .127.306v.792c.24-.408.57-.714.99-.918.42-.204.924-.306 1.511-.306h.72a.36.36 0 0 1 .288.126.39.39 0 0 1 .108.288v.738a.39.39 0 0 1-.108.288.39.39 0 0 1-.288.108h-1.08c-.647 0-1.157.192-1.53.576-.372.372-.558.882-.558 1.53v5.292c0 .12-.041.222-.126.306a.454.454 0 0 1-.305.108h-.883Zm13.901 0a.454.454 0 0 1-.306-.108.454.454 0 0 1-.108-.306v-4.248l-4.338-7.344-.036-.108a.399.399 0 0 1-.018-.126c0-.096.036-.18.108-.252a.345.345 0 0 1 .252-.108h.936c.108 0 .204.03.288.09.084.048.144.12.18.216l3.51 5.832 3.51-5.832a.698.698 0 0 1 .198-.216c.084-.06.18-.09.288-.09h.918c.108 0 .198.036.27.108a.345.345 0 0 1 .108.252.399.399 0 0 1-.072.234l-4.32 7.344v4.248c0 .12-.042.222-.126.306-.072.072-.174.108-.306.108h-.936Zm9.963.18c-.912 0-1.674-.174-2.286-.522a3.526 3.526 0 0 1-1.404-1.44c-.324-.624-.504-1.332-.54-2.124a13.625 13.625 0 0 1-.018-.774c0-.324.006-.582.018-.774.036-.804.216-1.512.54-2.124a3.647 3.647 0 0 1 1.422-1.44c.612-.348 1.368-.522 2.268-.522.9 0 1.656.174 2.268.522.612.348 1.08.828 1.404 1.44.336.612.522 1.32.558 2.124.012.192.018.45.018.774 0 .312-.006.57-.018.774-.036.792-.216 1.5-.54 2.124a3.526 3.526 0 0 1-1.404 1.44c-.612.348-1.374.522-2.286.522Zm0-1.386c.744 0 1.338-.234 1.782-.702.444-.48.684-1.176.72-2.088.012-.18.018-.408.018-.684 0-.276-.006-.504-.018-.684-.036-.912-.276-1.602-.72-2.07-.444-.48-1.038-.72-1.782-.72s-1.344.24-1.8.72c-.444.468-.678 1.158-.702 2.07-.012.18-.018.408-.018.684 0 .276.006.504.018.684.024.912.258 1.608.702 2.088.456.468 1.056.702 1.8.702Zm9.994 1.386c-.768 0-1.422-.168-1.962-.504a3.31 3.31 0 0 1-1.206-1.44c-.276-.612-.414-1.314-.414-2.106v-5.076a.39.39 0 0 1 .108-.288.417.417 0 0 1 .306-.126h.9a.36.36 0 0 1 .288.126.36.36 0 0 1 .126.288v4.986c0 1.788.78 2.682 2.34 2.682.744 0 1.338-.234 1.782-.702.456-.48.684-1.14.684-1.98v-4.986a.39.39 0 0 1 .108-.288.417.417 0 0 1 .306-.126h.882c.132 0 .234.042.306.126a.39.39 0 0 1 .108.288v8.532c0 .12-.036.222-.108.306-.072.072-.174.108-.306.108h-.828a.454.454 0 0 1-.306-.108.454.454 0 0 1-.108-.306v-.792c-.324.42-.72.756-1.188 1.008-.456.252-1.062.378-1.818.378Zm7.75-.18a.454.454 0 0 1-.306-.108.454.454 0 0 1-.108-.306v-8.514c0-.12.036-.222.108-.306a.417.417 0 0 1 .306-.126h.828c.12 0 .222.042.306.126a.417.417 0 0 1 .126.306v.792c.24-.408.57-.714.99-.918.42-.204.924-.306 1.512-.306h.72a.36.36 0 0 1 .288.126.39.39 0 0 1 .108.288v.738a.39.39 0 0 1-.108.288.39.39 0 0 1-.288.108h-1.08c-.648 0-1.158.192-1.53.576-.372.372-.558.882-.558 1.53v5.292c0 .12-.042.222-.126.306a.454.454 0 0 1-.306.108h-.882Zm14.14.18c-1.236 0-2.22-.378-2.952-1.134-.732-.768-1.134-1.812-1.206-3.132a8.01 8.01 0 0 1-.018-.594c0-.252.006-.456.018-.612.048-.852.246-1.596.594-2.232a3.714 3.714 0 0 1 1.422-1.494c.612-.348 1.326-.522 2.142-.522.912 0 1.674.192 2.286.576.624.384 1.098.93 1.422 1.638.324.708.486 1.536.486 2.484v.306a.381.381 0 0 1-.126.306.39.39 0 0 1-.288.108h-6.228v.162c.024.492.132.954.324 1.386.192.42.468.762.828 1.026.36.264.792.396 1.296.396.432 0 .792-.066 1.08-.198.288-.132.522-.276.702-.432.18-.168.3-.294.36-.378.108-.156.192-.246.252-.27a.582.582 0 0 1 .288-.054h.864a.39.39 0 0 1 .288.108c.084.06.12.15.108.27-.012.18-.108.402-.288.666-.18.252-.438.504-.774.756a4.509 4.509 0 0 1-1.224.63c-.48.156-1.032.234-1.656.234Zm-2.448-5.544h4.932v-.054c0-.54-.102-1.02-.306-1.44a2.275 2.275 0 0 0-.846-.99c-.372-.252-.816-.378-1.332-.378-.516 0-.96.126-1.332.378-.36.24-.636.57-.828.99-.192.42-.288.9-.288 1.44v.054ZM133.066 37a.454.454 0 0 1-.306-.108.454.454 0 0 1-.108-.306v-8.532a.39.39 0 0 1 .108-.288.417.417 0 0 1 .306-.126h.81a.36.36 0 0 1 .288.126.36.36 0 0 1 .126.288v.63a2.975 2.975 0 0 1 1.044-.882c.42-.228.924-.342 1.512-.342 1.356-.012 2.316.54 2.88 1.656a3.067 3.067 0 0 1 1.206-1.206c.528-.3 1.128-.45 1.8-.45a3.35 3.35 0 0 1 1.692.432c.516.288.918.726 1.206 1.314.3.576.45 1.302.45 2.178v5.202c0 .12-.042.222-.126.306a.39.39 0 0 1-.288.108h-.846a.454.454 0 0 1-.306-.108.454.454 0 0 1-.108-.306v-5.04c0-.672-.096-1.2-.288-1.584-.192-.384-.45-.654-.774-.81a2.416 2.416 0 0 0-1.062-.234c-.312 0-.63.078-.954.234-.324.156-.594.426-.81.81-.204.384-.306.912-.306 1.584v5.04c0 .12-.042.222-.126.306a.39.39 0 0 1-.288.108h-.846a.454.454 0 0 1-.306-.108.454.454 0 0 1-.108-.306v-5.04c0-.672-.102-1.2-.306-1.584-.204-.384-.468-.654-.792-.81a2.336 2.336 0 0 0-1.026-.234c-.312 0-.63.078-.954.234-.324.156-.594.426-.81.81-.204.384-.306.906-.306 1.566v5.058c0 .12-.042.222-.126.306a.39.39 0 0 1-.288.108h-.864Zm18.192.18c-.6 0-1.146-.12-1.638-.36a3.167 3.167 0 0 1-1.188-.972 2.28 2.28 0 0 1-.45-1.386c0-.828.336-1.488 1.008-1.98.672-.492 1.548-.816 2.628-.972l2.682-.378v-.522c0-.576-.168-1.026-.504-1.35-.324-.324-.858-.486-1.602-.486-.54 0-.978.108-1.314.324a1.754 1.754 0 0 0-.684.828c-.072.18-.198.27-.378.27h-.81c-.132 0-.234-.036-.306-.108a.483.483 0 0 1-.09-.288c0-.18.066-.402.198-.666.144-.264.36-.522.648-.774a3.567 3.567 0 0 1 1.098-.63c.456-.18 1.008-.27 1.656-.27.72 0 1.326.096 1.818.288.492.18.876.426 1.152.738.288.312.492.666.612 1.062.132.396.198.798.198 1.206v5.832c0 .12-.042.222-.126.306a.39.39 0 0 1-.288.108h-.828c-.132 0-.234-.036-.306-.108a.454.454 0 0 1-.108-.306v-.774a3.517 3.517 0 0 1-.63.648 3.65 3.65 0 0 1-.99.522c-.396.132-.882.198-1.458.198Zm.378-1.35c.492 0 .942-.102 1.35-.306.408-.216.726-.546.954-.99.24-.444.36-1.002.36-1.674v-.504l-2.088.306c-.852.12-1.494.324-1.926.612-.432.276-.648.63-.648 1.062 0 .336.096.618.288.846.204.216.456.378.756.486.312.108.63.162.954.162Zm7.358 1.17a.454.454 0 0 1-.306-.108.454.454 0 0 1-.108-.306v-8.532a.39.39 0 0 1 .108-.288.417.417 0 0 1 .306-.126h.864a.36.36 0 0 1 .288.126.39.39 0 0 1 .108.288v8.532c0 .12-.036.222-.108.306a.39.39 0 0 1-.288.108h-.864Zm-.144-11.106a.454.454 0 0 1-.306-.108.454.454 0 0 1-.108-.306v-.972a.39.39 0 0 1 .108-.288.417.417 0 0 1 .306-.126h1.134a.36.36 0 0 1 .288.126.36.36 0 0 1 .126.288v.972c0 .12-.042.222-.126.306a.39.39 0 0 1-.288.108h-1.134ZM163.371 37a.454.454 0 0 1-.306-.108.454.454 0 0 1-.108-.306V24.634a.39.39 0 0 1 .108-.288.417.417 0 0 1 .306-.126h.846c.132 0 .234.042.306.126a.39.39 0 0 1 .108.288v11.952c0 .12-.036.222-.108.306-.072.072-.174.108-.306.108h-.846Zm10.967.18c-.6 0-1.146-.12-1.638-.36a3.167 3.167 0 0 1-1.188-.972 2.28 2.28 0 0 1-.45-1.386c0-.828.336-1.488 1.008-1.98.672-.492 1.548-.816 2.628-.972l2.682-.378v-.522c0-.576-.168-1.026-.504-1.35-.324-.324-.858-.486-1.602-.486-.54 0-.978.108-1.314.324a1.754 1.754 0 0 0-.684.828c-.072.18-.198.27-.378.27h-.81c-.132 0-.234-.036-.306-.108a.483.483 0 0 1-.09-.288c0-.18.066-.402.198-.666.144-.264.36-.522.648-.774a3.567 3.567 0 0 1 1.098-.63c.456-.18 1.008-.27 1.656-.27.72 0 1.326.096 1.818.288.492.18.876.426 1.152.738.288.312.492.666.612 1.062.132.396.198.798.198 1.206v5.832c0 .12-.042.222-.126.306a.39.39 0 0 1-.288.108h-.828c-.132 0-.234-.036-.306-.108a.454.454 0 0 1-.108-.306v-.774a3.517 3.517 0 0 1-.63.648 3.65 3.65 0 0 1-.99.522c-.396.132-.882.198-1.458.198Zm.378-1.35c.492 0 .942-.102 1.35-.306.408-.216.726-.546.954-.99.24-.444.36-1.002.36-1.674v-.504l-2.088.306c-.852.12-1.494.324-1.926.612-.432.276-.648.63-.648 1.062 0 .336.096.618.288.846.204.216.456.378.756.486.312.108.63.162.954.162Zm10.364 1.35c-.66 0-1.23-.114-1.71-.342a3.453 3.453 0 0 1-1.188-.954c-.3-.408-.528-.87-.684-1.386a7.19 7.19 0 0 1-.252-1.638 8.685 8.685 0 0 1 0-1.08 7.136 7.136 0 0 1 .252-1.62c.156-.516.384-.978.684-1.386a3.197 3.197 0 0 1 1.188-.954c.48-.24 1.05-.36 1.71-.36.708 0 1.296.126 1.764.378.468.252.852.564 1.152.936v-4.14a.39.39 0 0 1 .108-.288.417.417 0 0 1 .306-.126h.864a.36.36 0 0 1 .288.126.36.36 0 0 1 .126.288v11.952c0 .12-.042.222-.126.306a.39.39 0 0 1-.288.108h-.81c-.132 0-.234-.036-.306-.108a.454.454 0 0 1-.108-.306v-.756c-.3.384-.69.708-1.17.972-.48.252-1.08.378-1.8.378Zm.378-1.458c.6 0 1.08-.138 1.44-.414.36-.276.63-.624.81-1.044.18-.432.276-.87.288-1.314.012-.192.018-.42.018-.684 0-.276-.006-.51-.018-.702a3.102 3.102 0 0 0-.306-1.242 2.41 2.41 0 0 0-.828-1.008c-.36-.264-.828-.396-1.404-.396-.612 0-1.098.138-1.458.414-.36.264-.618.618-.774 1.062-.156.432-.246.9-.27 1.404-.012.348-.012.696 0 1.044.024.504.114.978.27 1.422.156.432.414.786.774 1.062.36.264.846.396 1.458.396Zm10.327 1.458c-.66 0-1.23-.114-1.71-.342a3.453 3.453 0 0 1-1.188-.954c-.3-.408-.528-.87-.684-1.386a7.19 7.19 0 0 1-.252-1.638 8.685 8.685 0 0 1 0-1.08 7.136 7.136 0 0 1 .252-1.62c.156-.516.384-.978.684-1.386a3.197 3.197 0 0 1 1.188-.954c.48-.24 1.05-.36 1.71-.36.708 0 1.296.126 1.764.378.468.252.852.564 1.152.936v-4.14a.39.39 0 0 1 .108-.288.417.417 0 0 1 .306-.126h.864a.36.36 0 0 1 .288.126.36.36 0 0 1 .126.288v11.952c0 .12-.042.222-.126.306a.39.39 0 0 1-.288.108h-.81c-.132 0-.234-.036-.306-.108a.454.454 0 0 1-.108-.306v-.756c-.3.384-.69.708-1.17.972-.48.252-1.08.378-1.8.378Zm.378-1.458c.6 0 1.08-.138 1.44-.414.36-.276.63-.624.81-1.044.18-.432.276-.87.288-1.314.012-.192.018-.42.018-.684 0-.276-.006-.51-.018-.702a3.102 3.102 0 0 0-.306-1.242 2.41 2.41 0 0 0-.828-1.008c-.36-.264-.828-.396-1.404-.396-.612 0-1.098.138-1.458.414-.36.264-.618.618-.774 1.062-.156.432-.246.9-.27 1.404-.012.348-.012.696 0 1.044.024.504.114.978.27 1.422.156.432.414.786.774 1.062.36.264.846.396 1.458.396ZM203.484 37a.454.454 0 0 1-.306-.108.454.454 0 0 1-.108-.306v-8.514c0-.12.036-.222.108-.306a.417.417 0 0 1 .306-.126h.828c.12 0 .222.042.306.126a.417.417 0 0 1 .126.306v.792c.24-.408.57-.714.99-.918.42-.204.924-.306 1.512-.306h.72a.36.36 0 0 1 .288.126.39.39 0 0 1 .108.288v.738a.39.39 0 0 1-.108.288.39.39 0 0 1-.288.108h-1.08c-.648 0-1.158.192-1.53.576-.372.372-.558.882-.558 1.53v5.292c0 .12-.042.222-.126.306a.454.454 0 0 1-.306.108h-.882Zm9.974.18c-1.236 0-2.22-.378-2.952-1.134-.732-.768-1.134-1.812-1.206-3.132a8.01 8.01 0 0 1-.018-.594c0-.252.006-.456.018-.612.048-.852.246-1.596.594-2.232a3.714 3.714 0 0 1 1.422-1.494c.612-.348 1.326-.522 2.142-.522.912 0 1.674.192 2.286.576.624.384 1.098.93 1.422 1.638.324.708.486 1.536.486 2.484v.306a.381.381 0 0 1-.126.306.39.39 0 0 1-.288.108h-6.228v.162c.024.492.132.954.324 1.386.192.42.468.762.828 1.026.36.264.792.396 1.296.396.432 0 .792-.066 1.08-.198.288-.132.522-.276.702-.432.18-.168.3-.294.36-.378.108-.156.192-.246.252-.27a.582.582 0 0 1 .288-.054h.864a.39.39 0 0 1 .288.108c.084.06.12.15.108.27-.012.18-.108.402-.288.666-.18.252-.438.504-.774.756a4.509 4.509 0 0 1-1.224.63c-.48.156-1.032.234-1.656.234Zm-2.448-5.544h4.932v-.054c0-.54-.102-1.02-.306-1.44a2.275 2.275 0 0 0-.846-.99c-.372-.252-.816-.378-1.332-.378-.516 0-.96.126-1.332.378-.36.24-.636.57-.828.99-.192.42-.288.9-.288 1.44v.054Zm12.035 5.544c-.672 0-1.248-.084-1.728-.252-.48-.168-.87-.372-1.17-.612-.3-.24-.528-.48-.684-.72-.144-.24-.222-.432-.234-.576-.012-.132.03-.234.126-.306a.479.479 0 0 1 .288-.108h.792c.072 0 .126.012.162.036.048.012.108.06.18.144.156.168.33.336.522.504.192.168.426.306.702.414.288.108.642.162 1.062.162.612 0 1.116-.114 1.512-.342.396-.24.594-.588.594-1.044 0-.3-.084-.54-.252-.72-.156-.18-.444-.342-.864-.486-.408-.144-.972-.294-1.692-.45-.72-.168-1.29-.372-1.71-.612-.42-.252-.72-.546-.9-.882a2.509 2.509 0 0 1-.27-1.17c0-.444.132-.87.396-1.278.264-.42.648-.762 1.152-1.026.516-.264 1.158-.396 1.926-.396.624 0 1.158.078 1.602.234.444.156.81.354 1.098.594.288.228.504.456.648.684.144.228.222.42.234.576a.362.362 0 0 1-.108.306.43.43 0 0 1-.288.108h-.756a.412.412 0 0 1-.216-.054 1.352 1.352 0 0 1-.144-.126 3.835 3.835 0 0 0-.432-.468 1.695 1.695 0 0 0-.63-.378c-.252-.108-.588-.162-1.008-.162-.6 0-1.05.126-1.35.378-.3.252-.45.57-.45.954 0 .228.066.432.198.612s.384.342.756.486c.372.144.924.3 1.656.468.792.156 1.416.366 1.872.63.456.264.78.57.972.918.192.348.288.75.288 1.206 0 .504-.15.966-.45 1.386-.288.42-.72.756-1.296 1.008-.564.24-1.266.36-2.106.36Zm9.175 0c-.672 0-1.248-.084-1.728-.252-.48-.168-.87-.372-1.17-.612-.3-.24-.528-.48-.684-.72-.144-.24-.222-.432-.234-.576-.012-.132.03-.234.126-.306a.479.479 0 0 1 .288-.108h.792c.072 0 .126.012.162.036.048.012.108.06.18.144.156.168.33.336.522.504.192.168.426.306.702.414.288.108.642.162 1.062.162.612 0 1.116-.114 1.512-.342.396-.24.594-.588.594-1.044 0-.3-.084-.54-.252-.72-.156-.18-.444-.342-.864-.486-.408-.144-.972-.294-1.692-.45-.72-.168-1.29-.372-1.71-.612-.42-.252-.72-.546-.9-.882a2.509 2.509 0 0 1-.27-1.17c0-.444.132-.87.396-1.278.264-.42.648-.762 1.152-1.026.516-.264 1.158-.396 1.926-.396.624 0 1.158.078 1.602.234.444.156.81.354 1.098.594.288.228.504.456.648.684.144.228.222.42.234.576a.362.362 0 0 1-.108.306.43.43 0 0 1-.288.108h-.756a.412.412 0 0 1-.216-.054 1.352 1.352 0 0 1-.144-.126 3.835 3.835 0 0 0-.432-.468 1.695 1.695 0 0 0-.63-.378c-.252-.108-.588-.162-1.008-.162-.6 0-1.05.126-1.35.378-.3.252-.45.57-.45.954 0 .228.066.432.198.612s.384.342.756.486c.372.144.924.3 1.656.468.792.156 1.416.366 1.872.63.456.264.78.57.972.918.192.348.288.75.288 1.206 0 .504-.15.966-.45 1.386-.288.42-.72.756-1.296 1.008-.564.24-1.266.36-2.106.36Z" opacity=".3"/>
</svg>
