<svg xmlns="http://www.w3.org/2000/svg" width="78" height="78" fill="none" viewBox="0 0 78 78">
  <circle cx="39" cy="39" r="36" fill="#E5F1FF" stroke="#fff" stroke-width="6"/>
  <path fill="#716969" d="M32.042 47.25a2.58 2.58 0 0 0-2.57 2.583 2.58 2.58 0 0 0 2.57 2.584 2.59 2.59 0 0 0 2.583-2.584 2.59 2.59 0 0 0-2.583-2.583Zm-7.75-20.667v2.584h2.583l4.65 9.803-1.743 3.165a2.497 2.497 0 0 0-.323 1.24 2.59 2.59 0 0 0 2.583 2.583h15.5v-2.583H32.584a.32.32 0 0 1-.322-.323l.038-.155 1.163-2.105h9.623c.968 0 1.821-.53 2.26-1.33l4.624-8.384c.104-.18.155-.4.155-.62 0-.71-.58-1.291-1.291-1.291H29.73l-1.214-2.584h-4.224ZM44.959 47.25a2.58 2.58 0 0 0-2.57 2.583 2.58 2.58 0 0 0 2.57 2.584 2.59 2.59 0 0 0 2.583-2.584 2.59 2.59 0 0 0-2.583-2.583Z"/>
</svg>
