<svg xmlns="http://www.w3.org/2000/svg" width="78" height="77" fill="none" viewBox="0 0 78 77">
  <path fill="#E5FFFB" stroke="#fff" stroke-width="6" d="M75 38.5C75 58.07 58.919 74 39 74S3 58.07 3 38.5 19.081 3 39 3s36 15.93 36 35.5Z"/>
  <path fill="#716969" d="M33.042 46.25a2.58 2.58 0 0 0-2.57 2.583 2.58 2.58 0 0 0 2.57 2.584 2.59 2.59 0 0 0 2.583-2.584 2.59 2.59 0 0 0-2.583-2.583Zm-7.75-20.667v2.584h2.583l4.65 9.803-1.743 3.165a2.497 2.497 0 0 0-.323 1.24 2.59 2.59 0 0 0 2.583 2.583h15.5v-2.583H33.584a.32.32 0 0 1-.322-.323l.038-.155 1.163-2.105h9.623c.968 0 1.821-.53 2.26-1.33l4.624-8.384c.104-.18.155-.4.155-.62 0-.71-.58-1.291-1.291-1.291H30.73l-1.214-2.584h-4.224ZM45.959 46.25a2.58 2.58 0 0 0-2.57 2.583 2.58 2.58 0 0 0 2.57 2.584 2.59 2.59 0 0 0 2.583-2.584 2.59 2.59 0 0 0-2.583-2.583Z"/>
</svg>
