<svg xmlns="http://www.w3.org/2000/svg" width="193" height="31" fill="none" viewBox="0 0 193 31">
  <path fill="#FDAE38" d="M14.252 2.927c.299-.921 1.602-.921 1.902 0l2.237 6.887a1 1 0 0 0 .952.69h7.24c.97 0 1.372 1.24.588 1.81l-5.858 4.256a1 1 0 0 0-.363 1.118l2.238 6.887c.299.921-.756 1.687-1.54 1.118l-5.857-4.256a1 1 0 0 0-1.176 0l-5.858 4.256c-.784.57-1.839-.197-1.54-1.118l2.238-6.887a1 1 0 0 0-.363-1.118l-5.858-4.256c-.784-.57-.381-1.81.588-1.81h7.24a1 1 0 0 0 .952-.69l2.238-6.887Zm40.406 0c.3-.921 1.603-.921 1.902 0l2.238 6.887a1 1 0 0 0 .95.69h7.242c.969 0 1.371 1.24.588 1.81l-5.859 4.256a1 1 0 0 0-.363 1.118l2.238 6.887c.3.921-.755 1.687-1.539 1.118l-5.858-4.256a1 1 0 0 0-1.176 0l-5.858 4.256c-.784.57-1.838-.197-1.539-1.118l2.238-6.887a1 1 0 0 0-.364-1.118l-5.858-4.256c-.784-.57-.38-1.81.588-1.81h7.241a1 1 0 0 0 .951-.69l2.238-6.887Zm40.404 0c.3-.921 1.603-.921 1.902 0l2.238 6.887a1 1 0 0 0 .951.69h7.241c.969 0 1.372 1.24.588 1.81l-5.858 4.256a1 1 0 0 0-.364 1.118l2.238 6.887c.299.921-.755 1.687-1.539 1.118l-5.858-4.256a1 1 0 0 0-1.175 0l-5.859 4.256c-.783.57-1.838-.197-1.539-1.118l2.238-6.887a1 1 0 0 0-.363-1.118l-5.859-4.256c-.783-.57-.38-1.81.588-1.81h7.242a1 1 0 0 0 .95-.69l2.238-6.887Zm40.404 0c.3-.921 1.603-.921 1.903 0l2.237 6.887a1 1 0 0 0 .951.69h7.241c.969 0 1.372 1.24.588 1.81l-5.858 4.256a1 1 0 0 0-.363 1.118l2.237 6.887c.3.921-.755 1.687-1.538 1.118l-5.859-4.256a.999.999 0 0 0-1.175 0l-5.858 4.256c-.784.57-1.839-.197-1.539-1.118l2.237-6.887a.999.999 0 0 0-.363-1.118l-5.858-4.256c-.784-.57-.381-1.81.588-1.81h7.241a1 1 0 0 0 .951-.69l2.237-6.887Zm40.407 0c.299-.921 1.603-.921 1.902 0l2.238 6.887a.998.998 0 0 0 .951.69h7.241c.968 0 1.371 1.24.588 1.81l-5.859 4.256a1 1 0 0 0-.363 1.118l2.238 6.887c.299.921-.755 1.687-1.539 1.118l-5.858-4.256a1 1 0 0 0-1.176 0l-5.858 4.256c-.784.57-1.838-.197-1.539-1.118l2.238-6.887a1 1 0 0 0-.364-1.118l-5.858-4.256c-.784-.57-.381-1.81.588-1.81h7.241a1 1 0 0 0 .951-.69l2.238-6.887Z"/>
</svg>
