<svg xmlns="http://www.w3.org/2000/svg" width="52" height="52" fill="none" viewBox="0 0 52 52">
  <circle cx="25.549" cy="26.115" r="25.452" fill="#fff" transform="rotate(-.24 25.549 26.115)"/>
  <path stroke="#FF4948" stroke-linecap="round" stroke-linejoin="round" stroke-width="2" d="M31 16H21a5 5 0 0 0-5 5v10a5 5 0 0 0 5 5h10a5 5 0 0 0 5-5V21a5 5 0 0 0-5-5Z"/>
  <path stroke="#FF4948" stroke-linecap="round" stroke-linejoin="round" stroke-width="2" d="M30 25.37a4 4 0 1 1-7.914 1.174A4 4 0 0 1 30 25.37Zm1.5-4.87h.01"/>
</svg>
