<svg xmlns="http://www.w3.org/2000/svg" width="191" height="61" fill="none" viewBox="0 0 191 61">
  <rect width="191" height="61" fill="#fff" rx="30.5"/>
  <path fill="#FF4948" d="M48.244 38a.51.51 0 0 1-.374-.154.51.51 0 0 1-.154-.374V23.15c0-.161.044-.293.132-.396a.536.536 0 0 1 .396-.154h6.38c1.716 0 2.992.381 3.828 1.144.85.748 1.276 1.775 1.276 3.08 0 .763-.19 1.415-.572 1.958-.367.528-.8.91-1.298 1.144.616.279 1.13.733 1.54 1.364.425.63.638 1.35.638 2.156 0 1.364-.462 2.464-1.386 3.3-.91.836-2.193 1.254-3.85 1.254h-6.556Zm5.984-9.086c.763 0 1.342-.183 1.738-.55.396-.367.594-.858.594-1.474 0-.63-.198-1.115-.594-1.452-.396-.352-.975-.528-1.738-.528h-3.454v4.004h3.454Zm.22 6.754c.763 0 1.357-.205 1.782-.616.425-.425.638-.96.638-1.606 0-.66-.213-1.195-.638-1.606-.425-.425-1.02-.638-1.782-.638h-3.674v4.466h3.674Zm14.488 2.552c-1.98 0-3.52-.506-4.62-1.518s-1.65-2.545-1.65-4.598V23.15c0-.161.044-.293.132-.396a.536.536 0 0 1 .396-.154h2.002c.161 0 .286.051.374.154a.536.536 0 0 1 .154.396v8.954c0 1.173.279 2.06.836 2.662.557.587 1.35.88 2.376.88 1.027 0 1.811-.293 2.354-.88.557-.601.836-1.489.836-2.662V23.15c0-.161.051-.293.154-.396a.536.536 0 0 1 .396-.154h1.98c.161 0 .286.051.374.154a.536.536 0 0 1 .154.396v8.954c0 2.053-.55 3.586-1.65 4.598-1.085 1.012-2.618 1.518-4.598 1.518ZM83.058 38a.51.51 0 0 1-.374-.154.51.51 0 0 1-.154-.374V32.5l-5.192-9.196a.461.461 0 0 1-.066-.242c0-.132.044-.242.132-.33a.422.422 0 0 1 .308-.132h1.958c.161 0 .293.044.396.132a.957.957 0 0 1 .264.286l3.74 6.402 3.718-6.402c.176-.279.403-.418.682-.418h1.936a.448.448 0 0 1 .462.462.461.461 0 0 1-.066.242L85.61 32.5v4.972a.51.51 0 0 1-.154.374.536.536 0 0 1-.396.154h-2.002Zm14.944 0a.51.51 0 0 1-.374-.154.51.51 0 0 1-.154-.374V23.15c0-.161.044-.293.132-.396a.536.536 0 0 1 .396-.154h1.694c.176 0 .308.037.396.11.088.059.168.14.242.242l6.336 9.856V23.15c0-.161.044-.293.132-.396a.534.534 0 0 1 .396-.154h1.848c.161 0 .293.051.396.154a.539.539 0 0 1 .154.396v14.3a.539.539 0 0 1-.154.396.51.51 0 0 1-.374.154h-1.716c-.25 0-.462-.117-.638-.352l-6.314-9.636v9.46a.539.539 0 0 1-.154.396.588.588 0 0 1-.396.132h-1.848Zm20.945.22c-1.995 0-3.55-.506-4.664-1.518-1.115-1.012-1.702-2.515-1.76-4.51a57.815 57.815 0 0 1-.022-1.87c0-.836.007-1.467.022-1.892.058-1.95.66-3.447 1.804-4.488 1.144-1.041 2.684-1.562 4.62-1.562s3.476.52 4.62 1.562c1.158 1.041 1.767 2.537 1.826 4.488.029.85.044 1.481.044 1.892 0 .396-.015 1.02-.044 1.87-.074 1.995-.668 3.498-1.782 4.51-1.115 1.012-2.67 1.518-4.664 1.518Zm0-2.53c.982 0 1.767-.293 2.354-.88.586-.601.902-1.51.946-2.728.029-.88.044-1.474.044-1.782 0-.337-.015-.931-.044-1.782-.044-1.217-.36-2.12-.946-2.706-.587-.601-1.372-.902-2.354-.902-.968 0-1.746.3-2.332.902-.587.587-.902 1.489-.946 2.706a54.15 54.15 0 0 0-.022 1.782c0 .748.007 1.342.022 1.782.044 1.217.352 2.127.924 2.728.586.587 1.371.88 2.354.88ZM130.684 38c-.22 0-.396-.059-.528-.176a.766.766 0 0 1-.242-.484l-2.618-14.102-.022-.176c0-.132.044-.242.132-.33a.496.496 0 0 1 .33-.132h1.935c.367 0 .573.147.617.44l1.826 9.966 1.98-6.446c.146-.367.388-.55.726-.55h1.188c.366 0 .601.183.704.55l2.002 6.424 1.826-9.944c.029-.161.088-.271.176-.33.102-.073.249-.11.44-.11h1.936c.117 0 .22.044.308.132a.448.448 0 0 1 .132.33.594.594 0 0 1-.022.176l-2.618 14.102c-.074.44-.33.66-.77.66h-1.474a.798.798 0 0 1-.506-.154.734.734 0 0 1-.264-.396l-2.464-7.348-2.464 7.348c-.147.367-.411.55-.792.55h-1.474Z"/>
</svg>
