<svg xmlns="http://www.w3.org/2000/svg" width="622" height="603" fill="none" viewBox="0 0 622 603">
  <path fill="#FFDCDC" d="M338.953 227.865a12.37 12.37 0 0 1-17.347 14.872 12.366 12.366 0 1 1 17.347-14.872Z"/>
  <path fill="#FFDCDC" d="M335.88 224.503c-.406.62-11.272-6.6-22.757-17.681-11.486-11.08-20.517-20.04-20.112-20.564.405-.525 10.604 7.53 21.994 18.586 11.391 11.057 21.399 19.04 20.875 19.659Z"/>
  <path fill="#FFDCDC" d="M310.504 166.148c.715 0 .238 6.958-4.98 13.368-5.219 6.41-11.915 8.388-12.034 7.697-.119-.691 5.266-3.574 9.913-9.532 4.647-5.957 6.267-11.7 7.101-11.533Zm8.696 9.388c.738 0 .548 6.886-5.005 12.772-5.552 5.886-12.391 6.625-12.367 5.91.024-.715 5.6-2.502 10.39-7.768 4.789-5.267 6.243-11.057 6.982-10.914ZM535.066 41.093a6.269 6.269 0 0 1-1.873 6.705 6.267 6.267 0 1 1 1.873-6.705Z"/>
  <path fill="#FFDCDC" d="M533.663 39.425a48.205 48.205 0 0 1-11.533-8.96 105.902 105.902 0 0 1-10.175-10.437c.262-.31 5.362 3.837 11.128 9.532 5.767 5.695 10.699 9.531 10.58 9.865Z"/>
  <path fill="#FFDCDC" d="M520.651 9.828a11.444 11.444 0 0 1-8.626 10.676c-.167-.382 2.668-1.811 5.027-4.766 2.36-2.955 3.194-6.005 3.599-5.91Zm4.433 4.768c.381 0 .286 3.479-2.526 6.458a7.623 7.623 0 0 1-6.267 3.002c0-.405 2.836-1.263 5.242-3.932 2.407-2.668 3.146-5.623 3.551-5.528ZM341.455 56.392a12.51 12.51 0 1 1 3.145-17.419 12.536 12.536 0 0 1-3.145 17.419Z"/>
  <path fill="#FFDCDC" d="M343.84 52.531c-1.144-.381 2.383-13.153 9.889-27.498 7.506-14.346 13.845-25.45 14.893-25.021 1.049.429-3.574 12.796-11.009 26.974-7.434 14.179-12.629 25.927-13.773 25.545Z"/>
  <path fill="#FFDCDC" d="M400.385 25.128c0 1.001-10.461.882-21.041-6.076A29.14 29.14 0 0 1 368.621 7.28c-1.787-3.836-1.334-6.624-.81-6.648.524-.024 1.31 2.192 3.479 5.123a39.91 39.91 0 0 0 10.461 9.699c9.46 6.29 18.944 8.364 18.634 9.674ZM373.22 81.53a12.51 12.51 0 1 1-14.224-20.583 12.51 12.51 0 0 1 14.224 20.584Z"/>
  <path fill="#FFDCDC" d="M375.628 77.67c-1.167-.381 2.383-13.154 9.889-27.499 7.507-14.345 13.845-25.45 14.894-25.02 1.048.429-3.599 12.796-11.009 26.974-7.411 14.178-12.654 25.926-13.774 25.545Z"/>
  <path fill="#FFDCDC" d="M396.811 32.897c0 1.144-9.889 1.668-20.04-4.504-10.151-6.171-14.417-15.131-13.392-15.584 1.024-.452 6.434 6.458 15.632 11.915 9.198 5.457 17.919 6.91 17.8 8.173Zm29.431 177.093a9.534 9.534 0 0 1-14.297 3.68 9.538 9.538 0 0 1-3.604-9.983 9.529 9.529 0 0 1 13.349-6.302 9.53 9.53 0 0 1 4.552 12.605Z"/>
  <path fill="#FFDCDC" d="M426.431 206.561c-.906.191-3.408-9.531-3.98-21.779-.572-12.249-.619-21.947.215-22.066.834-.119 2.526 9.746 3.05 21.875s1.501 21.78.715 21.97Z"/>
  <path fill="#FFDCDC" d="M452.951 167.1c.381.667-6.529 4.552-16.084 4.027a22.224 22.224 0 0 1-11.51-3.622c-2.621-1.858-3.407-3.836-3.074-4.051.334-.214 1.692.954 4.242 2.026a30.33 30.33 0 0 0 10.532 2.383c8.579.5 15.584-1.764 15.894-.763Zm3.671 47.276a9.529 9.529 0 0 1-9.064 5.522 9.535 9.535 0 0 1-8.552-6.286 9.529 9.529 0 0 1 13.065-11.841 9.532 9.532 0 0 1 4.551 12.605Z"/>
  <path fill="#FFDCDC" d="M456.718 210.993c-.882.214-3.408-9.532-3.98-21.78-.572-12.248-.619-21.923.215-22.042.834-.119 2.549 9.746 3.074 21.875.524 12.129 1.572 21.708.691 21.947Z"/>
  <path fill="#FFDCDC" d="M453.571 173.534c.477.715-5.862 4.766-14.846 4.766-8.983 0-15.226-4.408-14.702-5.099.524-.691 6.672 1.763 14.75 1.811 8.078.047 14.393-2.359 14.798-1.478Zm90.743 16.514a4.217 4.217 0 1 1-4.464-7.156 4.217 4.217 0 0 1 4.464 7.156Z"/>
  <path fill="#FFDCDC" d="M545.173 188.808c-.381-.143 1.073-4.385 3.813-9.103a39.553 39.553 0 0 1 5.457-8.149c.381.19-1.43 4.241-4.17 8.888a55.835 55.835 0 0 1-5.1 8.364Z"/>
  <path fill="#FFDCDC" d="M564.639 180.563a9.697 9.697 0 0 1-6.982-2.382 9.96 9.96 0 0 1-3.383-4.147c-.548-1.334-.334-2.263-.167-2.24.167.024.405.763 1.072 1.788a13.627 13.627 0 0 0 3.36 3.431c3.122 2.264 6.267 3.122 6.1 3.55Zm-10.08 18.515a4.214 4.214 0 0 1-4.679-.18 4.217 4.217 0 1 1 4.679.18Z"/>
  <path fill="#FFDCDC" d="M555.444 197.814c-.382-.143 1.048-4.385 3.812-9.079a41.022 41.022 0 0 1 5.433-8.173c.405.19-1.43 4.265-4.17 8.888a54.68 54.68 0 0 1-5.075 8.364Z"/>
  <path fill="#FFDCDC" d="M563.355 183.113c0 .381-3.36.381-6.672-1.859-3.313-2.24-4.576-5.338-4.218-5.481.357-.143 2.049 2.383 5.052 4.266 3.002 1.882 5.909 2.645 5.838 3.074ZM265.679 340.911a6.332 6.332 0 0 1-7.04-.24 6.34 6.34 0 0 1-.625-9.781 6.339 6.339 0 1 1 7.665 10.021Z"/>
  <path fill="#FFDCDC" d="M266.992 339.026c-.572-.215 1.572-6.601 5.718-13.63 4.147-7.03 7.674-12.511 8.174-12.272.5.238-2.145 6.386-6.267 13.344-4.123 6.958-7.054 12.772-7.625 12.558Z"/>
  <path fill="#FFDCDC" d="M296.301 326.658c0 .524-5.314.167-10.485-3.622a14.604 14.604 0 0 1-5.099-6.22c-.81-2.001-.524-3.383-.262-3.383s.619 1.143 1.644 2.692a19.751 19.751 0 0 0 5.028 5.147c4.599 3.432 9.341 4.719 9.174 5.386Zm-15.228 27.787a6.338 6.338 0 1 1-6.702-10.76 6.338 6.338 0 0 1 6.702 10.76Z"/>
  <path fill="#FFDCDC" d="M282.41 352.56c-.572-.214 1.572-6.577 5.718-13.63 4.147-7.054 7.65-12.51 8.174-12.272.524.238-2.145 6.386-6.267 13.368-4.123 6.982-7.077 12.749-7.625 12.534Z"/>
  <path fill="#FFDCDC" d="M294.275 330.496c0 .572-5.028.572-10.008-2.812-4.981-3.383-6.887-8.03-6.363-8.221.525-.19 3.098 3.432 7.602 6.41 4.503 2.979 8.864 3.98 8.769 4.623Z"/>
  <path fill="#FBBFBF" d="M162.249 532.835a79.626 79.626 0 0 1-21.027-13.078 78.207 78.207 0 0 1-16.447-18.984 61.26 61.26 0 0 1-3.04-5.497l-2.581-5.739c-.734-1.97-1.265-4.018-1.906-6.013-.266-1.024-.642-1.995-.861-3.031l-.476-3.081c-.269-2.091-.753-4.151-.841-6.215l-.241-6.296a36.91 36.91 0 0 1 .453-6.203l.845-6.131a93.168 93.168 0 0 0 2.632 24.43 39.035 39.035 0 0 0 1.631 5.811c.682 1.861 1.281 3.791 2.038 5.657l2.555 5.448a55.907 55.907 0 0 0 2.968 5.217 96.048 96.048 0 0 0 15.168 18.745 102.068 102.068 0 0 0 9.242 7.961 98.049 98.049 0 0 0 9.888 6.999Zm-10.353 33.166a121.204 121.204 0 0 1-30.924-19.256 113.993 113.993 0 0 1-24.104-27.63 106.38 106.38 0 0 1-8.134-16.619 95.992 95.992 0 0 1-4.826-17.751 99.865 99.865 0 0 1 .715-36.425 135.3 135.3 0 0 0-.396 18.111 101.51 101.51 0 0 0 2.26 17.819 104.868 104.868 0 0 0 13.345 32.979 129.205 129.205 0 0 0 22.912 27.442 150.343 150.343 0 0 0 13.962 11.408 140.04 140.04 0 0 0 15.19 9.922Zm-14.671 29.554a151.134 151.134 0 0 1-38.574-24.018 142.218 142.218 0 0 1-30.067-34.465 132.7 132.7 0 0 1-10.146-20.731 119.74 119.74 0 0 1-6.02-22.141 124.573 124.573 0 0 1 .892-45.436 168.763 168.763 0 0 0-.494 22.591 126.595 126.595 0 0 0 2.82 22.227 130.81 130.81 0 0 0 16.645 41.137 161.155 161.155 0 0 0 28.581 34.231 187.572 187.572 0 0 0 17.415 14.23 174.603 174.603 0 0 0 18.948 12.375Zm327.634-171.746a83.849 83.849 0 0 1 4.917 25.434 82.21 82.21 0 0 1-2.927 26.005 56.526 56.526 0 0 1-2.032 6.254l-2.591 6.098c-1.003 1.966-2.191 3.838-3.281 5.733-.509.97-1.075 1.91-1.693 2.815l-2.052 2.578c-1.411 1.717-2.637 3.528-4.19 5.083l-4.669 4.586a35.814 35.814 0 0 1-5.117 4.068c-1.817 1.132-3.514 2.525-5.294 3.718a96.895 96.895 0 0 0 17.045-19.002 36.316 36.316 0 0 0 3.299-5.367c.961-1.898 1.937-3.638 2.922-5.634l2.45-5.718a58 58 0 0 0 1.895-6 100.797 100.797 0 0 0 3.596-24.998c.111-4.255-.043-8.512-.459-12.747a98.947 98.947 0 0 0-1.819-12.906Zm32.647-15.791a128.111 128.111 0 0 1 7.356 37.397 120.669 120.669 0 0 1-3.919 38.126 108.712 108.712 0 0 1-6.76 18.024 98.082 98.082 0 0 1-10.109 16.333 102.732 102.732 0 0 1-28.255 25.329 135.335 135.335 0 0 0 14.071-12.587c4.403-4.406 8.4-9.201 11.944-14.327a109.485 109.485 0 0 0 15.659-33.687 135.764 135.764 0 0 0 4.59-37.116 169.537 169.537 0 0 0-4.607-37.474l.03-.018Zm34.99-16.835a173.5 173.5 0 0 1 9.963 50.645 163.445 163.445 0 0 1-5.308 51.631 147.284 147.284 0 0 1-9.154 24.409 132.77 132.77 0 0 1-13.692 22.119 139.092 139.092 0 0 1-38.263 34.302 183.235 183.235 0 0 0 19.055-17.047 140.242 140.242 0 0 0 16.175-19.402 148.254 148.254 0 0 0 21.207-45.62 183.865 183.865 0 0 0 6.216-50.264 229.592 229.592 0 0 0-6.24-50.748l.041-.025Z"/>
</svg>
