<svg xmlns="http://www.w3.org/2000/svg" width="1236" height="294" fill="none" viewBox="0 0 1236 294">
  <g opacity=".5">
    <path fill="#FCB2B1" d="M44.253 239.604a11.46 11.46 0 0 1-3.538 12.381 11.48 11.48 0 0 1-3.98 2.16 11.746 11.746 0 0 1-14.893-7.33 11.46 11.46 0 0 1 7.518-14.541 11.746 11.746 0 0 1 14.893 7.33Z"/>
    <path fill="#FCB2B1" d="M41.318 236.501c-.4.564-10.736-6.155-21.683-16.444C8.688 209.768.091 201.405.49 200.912c.4-.494 10.101 7.047 20.93 17.313 10.83 10.265 20.32 17.689 19.898 18.276Z"/>
    <path fill="#FCB2B1" d="M17.074 182.191c.681 0 .211 6.484-4.698 12.45-4.91 5.967-11.3 7.8-11.464 7.048-.164-.752 5.027-3.312 9.396-8.739 4.37-5.426 6.014-10.923 6.766-10.759Zm8.386 8.737c.68 0 .516 6.414-4.699 11.887-5.215 5.474-11.745 6.178-11.745 5.497s5.332-2.349 9.89-7.235c4.557-4.886 5.755-10.289 6.553-10.149Zm18.559-95.444a21.847 21.847 0 0 1-29.928-5.332 20.696 20.696 0 0 1 5.45-29.223 21.847 21.847 0 0 1 29.928 5.309 20.718 20.718 0 0 1-5.45 29.246Z"/>
    <path fill="#FCB2B1" d="M48.132 89c-1.974-.61 4.18-22.08 17.007-46.16C77.965 18.762 88.89.063 90.721.791c1.832.728-6.154 21.518-18.793 45.315C59.29 69.903 50.081 89.636 48.132 89Z"/>
    <path fill="#FCB2B1" d="M145.267 43.004c0 1.715-18.018 1.48-36.2-10.171a49.472 49.472 0 0 1-18.417-19.78c-3.054-6.46-2.35-11.135-1.41-11.135.94 0 2.35 3.665 5.99 8.598a68.79 68.79 0 0 0 17.971 16.256c16.35 10.547 32.653 14 32.066 16.232ZM98.66 137.697a21.849 21.849 0 0 1-29.927-5.309 20.713 20.713 0 0 1-3.489-15.802 20.72 20.72 0 0 1 8.939-13.491 21.822 21.822 0 0 1 29.904 5.332 20.695 20.695 0 0 1-5.427 29.27Z"/>
    <path fill="#FCB2B1" d="M102.772 131.284c-1.973-.611 4.182-22.106 17.008-46.184 12.826-24.079 23.796-42.73 25.582-42.026 1.785.705-6.155 21.518-18.934 45.338s-21.706 43.436-23.656 42.872Z"/>
    <path fill="#FCB2B1" d="M139.207 56.114c.165 1.88-17.008 2.772-34.462-7.564-17.454-10.336-24.783-25.488-22.904-26.263 1.833-1.175 11.041 10.853 26.851 19.944 15.81 9.091 30.727 11.675 30.515 13.883Zm18.158 220.183a8.054 8.054 0 0 1-10.9-2.513 7.658 7.658 0 0 1 2.561-10.665 8.03 8.03 0 0 1 10.923 2.513 7.62 7.62 0 0 1 .969 5.88 7.641 7.641 0 0 1-3.553 4.785Z"/>
    <path fill="#FCB2B1" d="M159.008 273.969c-.728-.259 1.973-8.058 7.165-16.679 5.191-8.621 9.584-15.269 10.218-14.987.635.281-2.678 7.799-7.846 16.443-5.168 8.645-8.833 15.505-9.537 15.223Z"/>
    <path fill="#FCB2B1" d="M195.678 258.864c0 .635-6.648.212-13.108-4.416a18.32 18.32 0 0 1-6.389-7.635c-1.011-2.349-.635-4.134-.306-4.111.329.024.752 1.386 2.044 3.266a24.673 24.673 0 0 0 6.272 6.319c5.708 4.181 11.722 5.849 11.487 6.577Zm-19.029 33.971a8.01 8.01 0 0 1-10.9-2.514 7.628 7.628 0 0 1-.967-5.862 7.637 7.637 0 0 1 3.528-4.78 8.01 8.01 0 0 1 10.9 2.514 7.644 7.644 0 0 1-.313 8.609 7.638 7.638 0 0 1-2.248 2.033Z"/>
    <path fill="#FCB2B1" d="M178.295 290.533c-.728-.259 1.973-8.058 7.165-16.679 5.191-8.621 9.584-15.293 10.218-14.987.635.305-2.678 7.799-7.846 16.326-5.168 8.527-8.832 15.622-9.537 15.34Z"/>
    <path fill="#FCB2B1" d="M193.165 263.542c0 .705-6.319.705-12.521-3.43-6.201-4.134-8.644-9.819-7.963-10.054.681-.235 3.852 4.205 9.396 7.822 5.544 3.618 11.206 4.957 11.088 5.662ZM1118.19 72.04a12.094 12.094 0 0 1-.75 9.258 12.026 12.026 0 0 1-2.96 3.697 12.127 12.127 0 0 1-4.16 2.267 12.42 12.42 0 0 1-9.35-.669 12.444 12.444 0 0 1-6.23-7.013 12.094 12.094 0 0 1 .75-9.258 12.026 12.026 0 0 1 2.96-3.697 12.125 12.125 0 0 1 4.16-2.267 12.42 12.42 0 0 1 9.35.669 12.444 12.444 0 0 1 6.23 7.013Z"/>
    <path fill="#FCB2B1" d="M1115.2 68.773c-.42.611-11.25-6.413-22.69-17.195-11.44-10.783-20.46-19.522-20.04-20.038.43-.517 10.57 7.352 21.9 18.111 11.32 10.76 21.26 18.535 20.83 19.122Z"/>
    <path fill="#FCB2B1" d="M1089.84 11.973c.7 0 .21 6.79-4.98 13.014-5.2 6.226-11.75 8.175-11.99 7.494-.23-.681 5.24-3.453 9.87-9.162 4.63-5.708 6.3-11.51 7.1-11.346Zm8.71 9.161c.73 0 .54 6.695-4.98 12.427-5.52 5.732-12.36 6.46-12.33 5.732.02-.728 5.56-2.349 10.33-7.54 4.77-5.192 6.2-10.877 6.98-10.619Zm68.13 213.678a20.967 20.967 0 0 1-12.01 10.405 20.937 20.937 0 0 1-15.85-1.009 20.473 20.473 0 0 1-10.72-11.624 20.789 20.789 0 0 1-1.21-7.971c.13-2.71.8-5.368 1.97-7.819a20.947 20.947 0 0 1 27.86-9.397 20.668 20.668 0 0 1 6.53 4.733 20.518 20.518 0 0 1 4.19 6.888 20.237 20.237 0 0 1 1.2 7.974c-.13 2.711-.8 5.369-1.96 7.82Z"/>
    <path fill="#FCB2B1" d="M1166.91 227.363c-1.98.4-7.45-20.742-8.63-47.217-1.17-26.475-1.22-47.476.66-47.687 1.88-.212 5.52 21.142 6.6 47.382 1.08 26.239 3.34 47.17 1.37 47.522Z"/>
    <path fill="#FCB2B1" d="M1226.01 142.843c.8 1.48-14.44 9.678-35.58 8.269a50.219 50.219 0 0 1-25.38-8.246c-5.8-4.04-7.47-8.386-6.74-8.809.73-.423 3.74 2.067 9.4 4.51a68.12 68.12 0 0 0 23.21 5.45c18.93 1.363 34.39-3.335 35.09-1.174Zm7.73 102.375a20.931 20.931 0 0 1-27.86 9.397 20.431 20.431 0 0 1-6.51-4.735 20.493 20.493 0 0 1-4.19-6.88 20.368 20.368 0 0 1-1.21-7.962 20.56 20.56 0 0 1 1.95-7.814 20.956 20.956 0 0 1 27.88-9.396 20.333 20.333 0 0 1 6.51 4.739 20.321 20.321 0 0 1 4.18 6.881 20.36 20.36 0 0 1 1.21 7.96c-.13 2.708-.8 5.362-1.96 7.81Z"/>
    <path fill="#FCB2B1" d="M1234 237.77c-1.97.399-7.47-20.743-8.64-47.217-1.18-26.475-1.23-47.476.65-47.711 1.88-.235 5.52 21.142 6.6 47.405s3.34 47.147 1.39 47.523Z"/>
    <path fill="#FCB2B1" d="M1227.35 156.796c1.08 1.551-12.97 10.313-32.89 9.679-19.92-.635-33.54-10.055-32.41-11.535.94-1.855 14.7 4.064 32.55 4.417 17.86.352 31.81-4.464 32.75-2.561Z"/>
  </g>
</svg>
