<svg xmlns="http://www.w3.org/2000/svg" width="35" height="27" fill="none" viewBox="0 0 35 27">
  <path fill="#FF4948" d="M28.338 23.146h-7.234a.724.724 0 0 1 0-1.447h7.234c1.196 0 2.17-.973 2.17-2.17v-1.447c0-.399.324-.723.723-.723h1.434c.4 0 .723-.324.723-.723v-8.68c0-.4-.324-.724-.723-.724H31.23a.724.724 0 0 1-.723-.723V5.062c0-1.196-.974-2.17-2.17-2.17h-4.34a.724.724 0 0 1 0-1.447h4.34a3.622 3.622 0 0 1 3.616 3.617v.723h.71c1.197 0 2.17.974 2.17 2.17v8.68c0 1.197-.973 2.17-2.17 2.17h-.71v.724a3.622 3.622 0 0 1-3.616 3.617Zm-18.934 0H3.617A3.622 3.622 0 0 1 0 19.529V5.062a3.622 3.622 0 0 1 3.617-3.617h10.127a.724.724 0 0 1 0 1.447H3.617c-1.197 0-2.17.974-2.17 2.17V19.53c0 1.197.973 2.17 2.17 2.17h5.787a.724.724 0 0 1 0 1.447Z"/>
  <path fill="#FF4948" d="M13.522 26.04a.723.723 0 0 1-.686-.95l3.03-9.178H10.19a.724.724 0 0 1-.595-1.135L19.615.31A.732.732 0 0 1 20.5.058a.725.725 0 0 1 .418.819l-2.037 9.249h5.777c.275 0 .527.156.65.403a.725.725 0 0 1-.077.761L14.095 25.757a.719.719 0 0 1-.573.282Zm-1.95-11.574h5.295a.722.722 0 0 1 .685.95l-2.01 6.09 7.645-9.934h-5.206a.726.726 0 0 1-.708-.88l1.441-6.54-7.142 10.314Z"/>
</svg>
