<svg xmlns="http://www.w3.org/2000/svg" width="35" height="35" fill="none" viewBox="0 0 35 35">
  <path fill="#FF4948" d="M27.672 23.234 20.218 17.5l7.454-5.734c.574-.444.91-1.128.91-1.853a2.348 2.348 0 0 0-.915-1.85L17.75.48a.603.603 0 0 0-.085-.054A2.301 2.301 0 0 0 16.332 0 2.42 2.42 0 0 0 14 2.44v10.204L9.74 9.042a1.167 1.167 0 0 0-1.66.195l-1.42 1.848c-.383.5-.3 1.213.185 1.613L12.61 17.5l-5.758 4.796c-.49.4-.576 1.116-.193 1.62l1.42 1.847a1.167 1.167 0 0 0 1.67.187L14 22.356V32.56A2.42 2.42 0 0 0 16.331 35a2.3 2.3 0 0 0 1.331-.425.61.61 0 0 0 .087-.055l9.917-7.583a2.334 2.334 0 0 0 .005-3.703Zm-.714 2.776-9.845 7.53a.61.61 0 0 0-.076.048 1.154 1.154 0 0 1-.704.245 1.272 1.272 0 0 1-1.167-1.273V21.1a.583.583 0 0 0-.96-.446l-5.203 4.399-1.413-1.854 6.304-5.25a.584.584 0 0 0 0-.896l-6.311-5.256L8.995 9.94l5.211 4.406a.583.583 0 0 0 .96-.446V2.44a1.272 1.272 0 0 1 1.166-1.273c.256.001.503.087.704.245a.573.573 0 0 0 .076.048l9.846 7.53a1.167 1.167 0 0 1 .003 1.851l-8.055 6.197a.583.583 0 0 0 0 .924l8.055 6.197a1.167 1.167 0 0 1-.003 1.851Z"/>
  <path fill="#FF4948" d="M18.083 14.574a.583.583 0 0 0 .584-.583V7.055l3.749 2.867-2.355 1.811a.583.583 0 0 0 .711.925l2.958-2.275a.583.583 0 0 0-.001-.926L18.438 5.41a.583.583 0 0 0-.938.463v8.117c0 .322.261.583.583.583Zm5.647 10.043-2.958-2.275a.583.583 0 0 0-.711.925l2.355 1.811-3.75 2.867v-6.936a.583.583 0 1 0-1.166 0v8.116a.583.583 0 0 0 .938.464l5.29-4.046a.583.583 0 0 0 .002-.926Z"/>
</svg>
