<svg xmlns="http://www.w3.org/2000/svg" width="167" height="61" fill="none" viewBox="0 0 167 61">
  <rect width="167" height="61" fill="#FF4948" rx="30.5"/>
  <path fill="#fff" d="M37.062 38.22c-1.364 0-2.508-.198-3.432-.594-.91-.41-1.606-.939-2.09-1.584-.47-.66-.719-1.35-.748-2.068a.448.448 0 0 1 .462-.462h1.958c.19 0 .33.044.418.132a.99.99 0 0 1 .264.286c.088.279.257.557.506.836.25.264.587.484 1.012.66.44.176.99.264 1.65.264 1.056 0 1.84-.176 2.354-.528.528-.352.792-.829.792-1.43 0-.425-.14-.763-.418-1.012-.279-.264-.711-.499-1.298-.704-.572-.22-1.335-.447-2.288-.682-1.1-.264-2.024-.58-2.772-.946-.733-.381-1.29-.858-1.672-1.43-.367-.572-.55-1.298-.55-2.178 0-.85.227-1.606.682-2.266.47-.66 1.13-1.18 1.98-1.562.865-.381 1.892-.572 3.08-.572.953 0 1.797.132 2.53.396.733.25 1.342.587 1.826 1.012.484.41.85.858 1.1 1.342.264.47.403.931.418 1.386a.499.499 0 0 1-.132.33c-.073.088-.183.132-.33.132h-2.046a.78.78 0 0 1-.352-.088.65.65 0 0 1-.286-.33c-.088-.455-.374-.843-.858-1.166-.484-.323-1.107-.484-1.87-.484-.792 0-1.43.147-1.914.44-.484.293-.726.748-.726 1.364 0 .41.117.755.352 1.034.25.264.638.499 1.166.704.543.205 1.254.425 2.134.66 1.247.279 2.266.601 3.058.968.792.367 1.371.836 1.738 1.408.367.557.55 1.269.55 2.134 0 .968-.264 1.797-.792 2.486-.513.675-1.24 1.195-2.178 1.562-.939.367-2.031.55-3.278.55Zm12.751 0c-.894 0-1.672-.198-2.332-.594-.645-.41-1.144-.983-1.496-1.716-.352-.748-.528-1.628-.528-2.64v-6.182a.51.51 0 0 1 .154-.374.51.51 0 0 1 .374-.154h1.936c.162 0 .286.051.374.154a.51.51 0 0 1 .154.374v6.05c0 1.819.8 2.728 2.398 2.728.763 0 1.364-.242 1.804-.726.455-.484.682-1.151.682-2.002v-6.05a.51.51 0 0 1 .154-.374.51.51 0 0 1 .374-.154h1.936c.147 0 .272.051.374.154a.51.51 0 0 1 .154.374v10.384a.51.51 0 0 1-.154.374.509.509 0 0 1-.374.154h-1.782a.536.536 0 0 1-.396-.154.555.555 0 0 1-.132-.374v-.902a4.22 4.22 0 0 1-1.474 1.21c-.586.293-1.32.44-2.2.44Zm15.754 0c-.85 0-1.562-.147-2.134-.44a4.364 4.364 0 0 1-1.386-1.122v.814a.51.51 0 0 1-.154.374.466.466 0 0 1-.374.154h-1.738a.51.51 0 0 1-.374-.154.51.51 0 0 1-.154-.374V22.908a.51.51 0 0 1 .154-.374.51.51 0 0 1 .374-.154h1.87c.162 0 .286.051.374.154a.51.51 0 0 1 .154.374v4.884a4.2 4.2 0 0 1 1.364-1.034c.558-.279 1.232-.418 2.024-.418.778 0 1.452.132 2.024.396a3.841 3.841 0 0 1 1.43 1.122c.396.47.697 1.02.902 1.65.206.63.316 1.313.33 2.046.015.264.022.506.022.726 0 .205-.007.44-.022.704a7.95 7.95 0 0 1-.352 2.112 5.081 5.081 0 0 1-.88 1.65 3.94 3.94 0 0 1-1.43 1.1c-.572.25-1.246.374-2.024.374Zm-.814-2.354c.631 0 1.122-.132 1.474-.396a2.25 2.25 0 0 0 .748-1.078c.162-.44.257-.924.286-1.452.03-.44.03-.88 0-1.32a5.005 5.005 0 0 0-.286-1.452 2.123 2.123 0 0 0-.748-1.056c-.352-.279-.843-.418-1.474-.418-.586 0-1.063.132-1.43.396a2.55 2.55 0 0 0-.836 1.012c-.19.396-.293.814-.308 1.254a15.499 15.499 0 0 0 0 1.694c.03.455.125.902.286 1.342.176.425.448.777.814 1.056.382.279.873.418 1.474.418Zm12.305 2.354c-.88 0-1.636-.103-2.267-.308-.615-.205-1.121-.462-1.517-.77-.397-.308-.69-.616-.88-.924-.191-.308-.294-.565-.309-.77-.014-.161.03-.286.133-.374a.56.56 0 0 1 .373-.154h1.739c.058 0 .11.007.154.022a.535.535 0 0 1 .175.132c.191.161.39.33.594.506.22.176.477.33.77.462.294.117.66.176 1.1.176.572 0 1.05-.11 1.43-.33.397-.235.594-.565.594-.99 0-.308-.088-.557-.264-.748-.16-.19-.469-.36-.923-.506-.455-.161-1.1-.33-1.936-.506-.822-.19-1.504-.433-2.046-.726-.543-.293-.947-.66-1.21-1.1-.264-.44-.397-.953-.397-1.54 0-.572.17-1.115.507-1.628.352-.528.865-.96 1.54-1.298.689-.337 1.54-.506 2.551-.506.793 0 1.482.103 2.069.308.586.19 1.07.433 1.452.726.395.293.696.594.901.902.206.293.316.55.33.77a.471.471 0 0 1-.132.396.526.526 0 0 1-.352.132H79.61a.437.437 0 0 1-.198-.044 1.153 1.153 0 0 1-.177-.11c-.16-.147-.337-.3-.528-.462a2.71 2.71 0 0 0-.703-.418c-.264-.132-.617-.198-1.056-.198-.558 0-.983.125-1.276.374-.294.235-.44.535-.44.902 0 .25.066.47.198.66.146.176.432.345.857.506.426.161 1.071.33 1.936.506.983.176 1.76.44 2.332.792.587.337.998.733 1.232 1.188.25.44.374.931.374 1.474 0 .66-.198 1.254-.594 1.782-.38.528-.953.946-1.715 1.254-.749.293-1.68.44-2.794.44Zm12.324 0c-1.056 0-1.987-.198-2.794-.594a4.496 4.496 0 0 1-1.87-1.716c-.44-.763-.681-1.68-.725-2.75-.015-.22-.022-.506-.022-.858 0-.367.007-.667.022-.902.044-1.07.285-1.98.726-2.728a4.453 4.453 0 0 1 1.87-1.738c.806-.396 1.737-.594 2.793-.594.94 0 1.739.132 2.398.396.66.264 1.203.594 1.629.99.425.396.74.814.945 1.254.22.425.338.814.353 1.166a.444.444 0 0 1-.154.396.555.555 0 0 1-.374.132h-1.936a.532.532 0 0 1-.352-.11 1.276 1.276 0 0 1-.22-.33c-.22-.587-.514-.997-.88-1.232-.352-.25-.807-.374-1.364-.374-.734 0-1.32.235-1.76.704-.426.455-.653 1.18-.683 2.178-.029.557-.029 1.07 0 1.54.03 1.012.257 1.745.683 2.2.44.455 1.026.682 1.76.682.572 0 1.033-.117 1.385-.352.353-.25.639-.667.859-1.254.073-.147.146-.257.22-.33a.532.532 0 0 1 .352-.11h1.936a.51.51 0 0 1 .373.154c.118.088.17.213.154.374a2.974 2.974 0 0 1-.22.902c-.117.323-.315.66-.594 1.012a4.853 4.853 0 0 1-1.011.946c-.411.279-.91.506-1.496.682-.573.176-1.24.264-2.003.264ZM97.53 38a.51.51 0 0 1-.374-.154.51.51 0 0 1-.154-.374V27.11c0-.161.051-.293.154-.396a.51.51 0 0 1 .374-.154h1.782a.51.51 0 0 1 .374.154.502.502 0 0 1 .176.396v.902c.337-.47.77-.829 1.298-1.078.542-.25 1.166-.374 1.87-.374h.902c.161 0 .286.051.374.154a.512.512 0 0 1 .154.374v1.584a.512.512 0 0 1-.154.374.466.466 0 0 1-.374.154h-1.716c-.704 0-1.254.198-1.65.594-.382.396-.572.939-.572 1.628v6.05a.51.51 0 0 1-.154.374.536.536 0 0 1-.396.154H97.53Zm9.174 0a.507.507 0 0 1-.374-.154.508.508 0 0 1-.154-.374V27.088c0-.147.051-.271.154-.374a.507.507 0 0 1 .374-.154h1.826c.161 0 .286.051.374.154a.512.512 0 0 1 .154.374v10.384a.512.512 0 0 1-.154.374.466.466 0 0 1-.374.154h-1.826Zm-.088-13.332a.585.585 0 0 1-.396-.132.587.587 0 0 1-.132-.396v-1.584c0-.147.044-.271.132-.374a.534.534 0 0 1 .396-.154h2.002c.161 0 .293.051.396.154a.512.512 0 0 1 .154.374v1.584a.539.539 0 0 1-.154.396.588.588 0 0 1-.396.132h-2.002Zm11.696 13.552c-.85 0-1.562-.147-2.134-.44a4.37 4.37 0 0 1-1.386-1.122v.814a.508.508 0 0 1-.154.374.465.465 0 0 1-.374.154h-1.738a.51.51 0 0 1-.374-.154.512.512 0 0 1-.154-.374V22.908c0-.147.052-.271.154-.374a.51.51 0 0 1 .374-.154h1.87c.162 0 .286.051.374.154a.508.508 0 0 1 .154.374v4.884c.367-.425.822-.77 1.364-1.034.558-.279 1.232-.418 2.024-.418.778 0 1.452.132 2.024.396a3.839 3.839 0 0 1 1.43 1.122c.396.47.697 1.02.902 1.65.206.63.316 1.313.33 2.046.015.264.022.506.022.726 0 .205-.007.44-.022.704a7.91 7.91 0 0 1-.352 2.112 5.062 5.062 0 0 1-.88 1.65 3.93 3.93 0 0 1-1.43 1.1c-.572.25-1.246.374-2.024.374Zm-.814-2.354c.631 0 1.122-.132 1.474-.396.352-.279.602-.638.748-1.078.162-.44.257-.924.286-1.452.03-.44.03-.88 0-1.32a4.972 4.972 0 0 0-.286-1.452 2.119 2.119 0 0 0-.748-1.056c-.352-.279-.843-.418-1.474-.418-.586 0-1.063.132-1.43.396a2.558 2.558 0 0 0-.836 1.012c-.19.396-.293.814-.308 1.254a16.216 16.216 0 0 0 0 1.694c.03.455.125.902.286 1.342.176.425.448.777.814 1.056.382.279.873.418 1.474.418Zm12.899 2.354c-1.628 0-2.919-.47-3.872-1.408-.954-.939-1.467-2.273-1.54-4.004a5.585 5.585 0 0 1-.022-.55c0-.235.007-.418.022-.55.058-1.1.308-2.053.748-2.86a4.623 4.623 0 0 1 1.87-1.848c.792-.44 1.723-.66 2.794-.66 1.188 0 2.185.25 2.992.748a4.594 4.594 0 0 1 1.826 2.046c.41.865.616 1.87.616 3.014v.462a.512.512 0 0 1-.154.374.537.537 0 0 1-.396.154h-7.304v.176c.014.513.11.99.286 1.43.19.425.462.77.814 1.034.366.264.799.396 1.298.396.41 0 .755-.059 1.034-.176a2.852 2.852 0 0 0 1.056-.836c.132-.176.234-.279.308-.308a.852.852 0 0 1 .374-.066h1.892c.146 0 .264.044.352.132a.363.363 0 0 1 .132.33c-.015.235-.14.52-.374.858-.22.337-.543.667-.968.99-.426.323-.961.594-1.606.814-.631.205-1.357.308-2.178.308Zm-2.42-6.93h4.862v-.066c0-.572-.096-1.07-.286-1.496a2.371 2.371 0 0 0-.836-1.012c-.367-.25-.807-.374-1.32-.374-.514 0-.954.125-1.32.374-.367.25-.646.587-.836 1.012-.176.425-.264.924-.264 1.496v.066Z"/>
</svg>
