<svg xmlns="http://www.w3.org/2000/svg" width="33" height="33" fill="none" viewBox="0 0 33 33">
  <g clip-path="url(#a)">
    <path fill="#FF4948" d="M6.388 8.552a.645.645 0 0 0-.912 0 7.934 7.934 0 0 0-2.341 5.647c0 2.132.831 4.138 2.341 5.648a.643.643 0 0 0 .912 0 .645.645 0 0 0 0-.912 6.653 6.653 0 0 1-1.964-4.736c0-1.787.697-3.47 1.964-4.735a.644.644 0 0 0 0-.912Zm17.919 3.188a.645.645 0 0 0-.644.644v.992h-1.454V6.51c0-3.145-2.562-5.704-5.71-5.704a5.713 5.713 0 0 0-5.71 5.704v6.866H9.336v-.991a.645.645 0 0 0-1.29 0v3.802c0 3.786 2.506 6.997 5.946 8.067v3.479h-2.23c-1.231 0-2.233 1-2.233 2.23v1.353a.88.88 0 0 0 .88.878h3.195a.644.644 0 1 0 0-1.289h-2.786v-.942c0-.519.424-.941.945-.941h9.473c.52 0 .943.422.943.942v.941h-2.786a.645.645 0 1 0 0 1.29h3.197a.88.88 0 0 0 .878-.879v-1.352a2.234 2.234 0 0 0-2.232-2.231h-2.231v-3.479c3.441-1.07 5.947-4.281 5.947-8.067v-3.802a.645.645 0 0 0-.645-.645ZM12.078 6.51a4.423 4.423 0 0 1 4.42-4.415A4.424 4.424 0 0 1 20.92 6.51v2.13h-8.842V6.51Zm0 3.42h8.842v1.68h-8.842V9.93Zm0 2.97h8.842v3.287a4.424 4.424 0 0 1-4.422 4.416 4.423 4.423 0 0 1-4.42-4.416v-3.288Zm5.638 14.833H15.28v-3.188a8.485 8.485 0 0 0 2.435 0v3.188Zm5.947-11.546c0 3.947-3.214 7.157-7.165 7.157-3.949 0-7.162-3.21-7.162-7.157v-1.522h1.453v1.522a5.713 5.713 0 0 0 5.71 5.705c3.148 0 5.71-2.56 5.71-5.705v-1.522h1.454v1.522Zm6.076-9.85a.644.644 0 1 0-.911.912 9.762 9.762 0 0 1 2.883 6.95 9.762 9.762 0 0 1-2.883 6.951.645.645 0 0 0 .91.912A11.043 11.043 0 0 0 33 14.2c0-2.97-1.158-5.762-3.261-7.863Z"/>
    <path fill="#FF4948" d="M27.522 8.552a.645.645 0 0 0-.911.912 6.651 6.651 0 0 1 1.965 4.735c0 1.788-.698 3.47-1.965 4.736a.645.645 0 0 0 .91.912 7.932 7.932 0 0 0 2.344-5.648 7.932 7.932 0 0 0-2.343-5.647ZM1.29 14.2a9.764 9.764 0 0 1 2.88-6.951.644.644 0 1 0-.911-.912A11.045 11.045 0 0 0 0 14.2c0 2.969 1.158 5.761 3.26 7.862a.643.643 0 0 0 .911 0 .645.645 0 0 0 0-.912 9.764 9.764 0 0 1-2.882-6.95Zm15.208 16.705a.645.645 0 0 0 0 1.29h.004a.643.643 0 0 0 .643-.645.646.646 0 0 0-.647-.645Z"/>
  </g>
  <defs>
    <clipPath id="a">
      <path fill="#fff" d="M0 0h33v33H0z"/>
    </clipPath>
  </defs>
</svg>
